<?xml version="1.0" encoding="utf-8"?>
<!-- Generator: Adobe Illustrator 27.0.0, SVG Export Plug-In . SVG Version: 6.00 Build 0)  -->
<svg version="1.1" id="Layer_1" xmlns="http://www.w3.org/2000/svg" xmlns:xlink="http://www.w3.org/1999/xlink" x="0px" y="0px"
	 viewBox="0 0 402.34 378.01" style="enable-background:new 0 0 402.34 378.01;" xml:space="preserve">
<style type="text/css">
	.st0{fill:#0F525A;}
	.st1{fill:url(#SVGID_1_);}
	.st2{fill:url(#SVGID_00000041289507811164316190000013525746885178047667_);}
	.st3{fill:#4DBA7A;}
	.st4{fill:url(#SVGID_00000177464526555955472440000011855489665005688466_);}
	.st5{fill:url(#SVGID_00000104696239989475349970000006292152762208812688_);}
	.st6{fill:url(#SVGID_00000132771163339900628700000003516767032578086576_);}
	.st7{fill:url(#SVGID_00000075138078341738879940000011210670918636698257_);}
	.st8{fill:url(#SVGID_00000115510022245955393600000011981065292544920726_);}
	.st9{fill:url(#SVGID_00000123417498063391427550000012876887931516852894_);}
	.st10{fill:url(#SVGID_00000068643727111747788500000005915787950792968832_);}
</style>
<g>
	<g>
		<g>
			<path class="st0" d="M179.68,69.03c-9.84-21.08-29.02-37.79-51.67-43.6c-20.56-5.62-43.29-1.47-61,10.25
				C49.55,47.03,37.18,65.8,33.57,86.31c-0.96,3.45-0.4,7.07-1.02,10.57c0.63-2.35,0.71-4.79,1.04-7.21
				c2.81-15.99,11.12-30.97,23.2-41.83c14.64-13.4,34.92-20.48,54.73-18.78c22.49,0.86,44.05,13.22,56.47,31.94
				c4.56,6.89,8.32,14.51,9.7,22.71c0.15,0.96,0.27,1.91,0.39,2.86c0.04,0.36,0.09,0.72,0.13,1.08c1.88,16.79-0.76,32.59-9.74,47.4
				c-19.36,31.91-52.34,50.76-77.53,77.26c-16.71,17.58-29.34,39.07-32.74,63.31c-3.37,24.01,1.33,49.08,13.04,70.3
				c1.58,2.85,3.28,5.64,5.12,8.33c6.6,9.65,17.2,21.78,17.53,22.16c-5.12-5.85-7.06-17.51-8.45-24.87
				c-1.75-9.27-2.28-18.66-1.62-28.07c1.59-22.5,9.85-44.12,22.9-62.45c3.85-5.4,8.22-10.61,12.71-15.5
				c0.01-0.01,0.01-0.01,0.02-0.02c10.71-11.65,23.15-22.07,34.09-33.68c11.12-11.81,20.84-25.29,27.92-39.91
				c3.73-7.67,6.45-15.93,7.83-25.35C192.65,123.49,189.92,90.38,179.68,69.03z"/>
		</g>
		<g>
			<path class="st0" d="M392.79,68.48L392.79,68.48L392.79,68.48c0,0-0.64,5.91-1.34,8.81c-0.98,3.68-2.47,7.13-4.31,10.39
				c-0.74,1.3-1.53,2.58-2.37,3.82c-3.78,5.6-8.5,10.64-13.27,15.35c0,0-0.01,0.01-0.01,0.01c-0.22,0.21-0.49,0.46-0.77,0.73
				c-0.02,0.02-0.03,0.03-0.05,0.04c-0.3,0.28-0.63,0.6-0.99,0.95c-0.01,0.01-0.02,0.02-0.03,0.03c-9.28,8.9-38.58,37.89-59.89,59
				c-4.48,4.44-8.62,8.54-12.13,12.03l0,0c-2.27,2.25-4.28,4.24-5.96,5.91c-9.59,9.57-19.06,19.32-27.4,30.01
				c-19.16,23.3-22.96,41.46-22.96,41.46s-0.09-59.73-0.09-60.11c0-0.47-0.01-0.94-0.01-1.41c0-0.2,0-0.4,0-0.6
				c0-0.42-0.01-0.84-0.01-1.25c0-0.16,0-0.33,0-0.49c-0.01-0.58-0.02-1.85-0.02-1.92c-0.01-0.5-0.01-1-0.02-1.49
				c0-0.14,0-0.28,0-0.42c-0.01-0.48-0.03-2.78-0.04-3.33c0-0.03,0-0.06,0-0.09c-0.01-0.53-0.01-1.04-0.02-1.55
				c0-0.04-0.03-2.11-0.03-2.31c0-4.52-0.18-9.04-0.59-13.54c-2.29-25.03-12.44-49.84-34.78-63.25c-2.22-1.36-4.68-2.44-6.51-3.16
				c-0.02-0.01-0.05-0.02-0.07-0.03c-1.6-0.63-2.69-0.97-2.69-0.97c1.6,12.03,3.8,25.26,3.56,39.39
				c-0.37,22.82-7.05,48.03-32.71,74.52c-8.58,8.9-37.05,31.38-50.54,55.92c-11.66,19.94-18.2,43.08-17.23,66.24
				c0.04,4.07,0.5,8.15,1.1,12.18c1.98,11.71,6.63,27.47,6.63,27.47c-0.93-12.8-0.76-23.6,7.05-40.1
				c5.86-12.34,14.44-23.19,23.9-32.96c7.32-7.81,15.78-14.39,23.61-21.68c6.21-5.99,11.95-12.49,17.14-19.38
				c5.76-6.94,9.6-15.18,13.44-23.31c10.39-21.96,12.17-54.49,11.47-74.16c-0.02-0.04,0.09,0.03,0.13,0.05
				c0.21,0.08,0.42,0.17,0.63,0.26c2.09,0.88,4.08,2.02,5.97,3.28c19.4,12.95,24.54,37.65,24.53,59.46c0,0,0,0,0,0
				c-0.01,21.14,0.11,110.57,0.11,110.57l0,0v0c0,0,1.06-6.75,4.29-16.64c0.18-0.55,0.37-1.11,0.56-1.68
				c2.51-7.38,6.2-16.29,11.48-25.36c12.22-21.18,29.8-38.48,47.06-55.53c4.74-4.66,12.44-12.48,21.35-21.64
				c2.17-2.23,4.4-4.53,6.69-6.89l0,0c26.78-27.63,60.07-62.51,60.07-62.51c-0.01,4.55-0.03,42.24-0.01,53.09h0
				c0,0.04,0,0.08,0,0.12h6.12c0-0.04,0-0.08,0-0.12h0C392.85,181.3,392.79,68.48,392.79,68.48z"/>
		</g>
	</g>
	
		<linearGradient id="SVGID_1_" gradientUnits="userSpaceOnUse" x1="-8178.0459" y1="-54.5581" x2="-8231.9033" y2="-139.2427" gradientTransform="matrix(-0.9985 -0.054 -0.054 0.9985 -8044.395 -194.6019)">
		<stop  offset="5.327789e-09" style="stop-color:#0F525A"/>
		<stop  offset="1" style="stop-color:#00292F"/>
	</linearGradient>
	<path class="st1" d="M111.51,194.11c6.12-5.39,12.21-10.81,18.29-16.25c1.61-1.46,3.17-2.98,4.76-4.46
		c3.24-2.91,6.34-5.96,9.41-9.04c5.72-5.6,11.12-11.53,16.19-17.73c3.99-5.19,7.95-10.45,11.18-16.17
		c3.35-6.42,5.73-13.38,6.72-20.57c1.27-8.69,0.93-17.52-0.38-26.18c5.52,14.11,6.17,29.71,4.1,44.6
		c-1.47,11.68-5.2,23.15-11.13,33.34c-2.77,5.45-6.28,10.46-10.21,15.14c-2.46,3.88-5.84,7.05-8.9,10.44
		c-2.62,2.93-5.31,5.81-8.29,8.38c-3.19,2.89-6.19,5.97-9.51,8.71c-1.97,2.24-4.3,4.14-7.14,5.14c-0.95-1.73-1.73-3.54-2.53-5.35
		c-1.71,0.1-3.43-0.27-4.66-1.55c-1.27-1.31-3.07-1.59-4.77-1.97c0.05-0.62,0.1-1.25,0.15-1.89c-0.73,0.1-1.46,0.19-2.18,0.27
		C113.02,197.22,113.43,195.11,111.51,194.11z"/>
	
		<linearGradient id="SVGID_00000150080929670147328190000012205464103196117923_" gradientUnits="userSpaceOnUse" x1="-7480.8745" y1="319.5971" x2="-7512.7632" y2="331.141" gradientTransform="matrix(-3.267949e-07 -1 1 -3.267949e-07 -291.7767 -7308.8667)">
		<stop  offset="0" style="stop-color:#FFFFFF"/>
		<stop  offset="1" style="stop-color:#B4B4B6"/>
	</linearGradient>
	<path style="fill:url(#SVGID_00000150080929670147328190000012205464103196117923_);" d="M34.61,198.35
		c1.05-1.21,2.38-2.18,3.32-3.48c3.41-4.68,6.59-9.36,8.19-14.99c1.4-4.93,1.87-10.32,1.01-15.39c-0.28-1.65-0.8-3.53-2.21-4.58
		c-1.6-1.19-3.8-0.86-5.63-0.51c-2.2,0.42-4.26,1.49-6.32,2.33c-2.68,1.09-5.46,2.15-8.36,2.47c-4.62,0.5-8.26-2.39-10.45-6.46
		c-2.4,2.16-10.11,10.13-10.11,10.13S33.13,196.66,34.61,198.35z"/>
	<path class="st3" d="M31.57,140.4L4.05,167.87l30.53,30.49l30.35-30.39c0,0-8.21-8.34-12.26-12.54
		c-5.07-4.97-15.09-15.03-15.09-15.03l27.45-27.53c0,0-20.31-20.2-30.41-30.36c-9.59,9.67-30.24,30.72-30.24,30.72L31.57,140.4z"/>
	<path class="st3" d="M301.84,81.31c-3.03-3.37-6.47-6.35-9.48-9.74c-2.93-2.51-5.43-5.54-8.33-8.1c-2.16-2.4-4.58-4.58-6.83-6.92
		c-0.9-0.96-1.83-1.89-2.82-2.76c-3.49,3.76-7.22,7.27-10.79,10.96c-1.26,1.07-2.31,2.35-3.57,3.43
		c-3.73,3.86-7.57,7.59-11.31,11.44c-1.71,1.46-3.14,3.22-4.83,4.69c1.21,1.05,2.18,2.38,3.48,3.32
		c8.93,9.05,18.06,17.9,26.91,27.03c4.42-3.79,8.34-8.21,12.54-12.26c4.97-5.07,10.15-9.94,15.03-15.09
		c9.18,9.14,18.26,18.39,27.53,27.45c10.02-10.23,20.2-20.31,30.36-30.41c-9.67-9.59-30.18-31.76-30.18-31.76
		S310.91,72.25,301.84,81.31z"/>
	<path class="st3" d="M271.95,31.83l30.01,30.02c10.02-10.23,20.2-20.31,30.36-30.41L301.6,1.2L271.95,31.83z"/>
	
		<linearGradient id="SVGID_00000034074346036755579280000003243004894134947459_" gradientUnits="userSpaceOnUse" x1="312.7307" y1="16.6759" x2="246.5117" y2="66.4277">
		<stop  offset="0.1461" style="stop-color:#4DBA7A"/>
		<stop  offset="1" style="stop-color:#28754E"/>
	</linearGradient>
	<path style="fill:url(#SVGID_00000034074346036755579280000003243004894134947459_);" d="M271.95,31.75
		c1.21,1.05,2.18,2.38,3.48,3.32c4.68,3.41,9.36,6.59,14.99,8.19c4.93,1.4,10.32,1.87,15.39,1.01c1.65-0.28,3.53-0.8,4.58-2.21
		c1.19-1.6,0.86-3.8,0.51-5.63c-0.42-2.2-1.49-4.26-2.33-6.32c-1.09-2.68-2.15-5.46-2.47-8.36c-0.5-4.62,1.61-8.35,5.68-10.54
		C309.62,8.82,301.6,1.2,301.6,1.2S273.64,30.28,271.95,31.75z"/>
	
		<linearGradient id="SVGID_00000122689980206527354520000015621776752470791099_" gradientUnits="userSpaceOnUse" x1="289.846" y1="65.1177" x2="214.8679" y2="125.0301">
		<stop  offset="0.1461" style="stop-color:#4DBA7A"/>
		<stop  offset="1" style="stop-color:#28754E"/>
	</linearGradient>
	<path style="fill:url(#SVGID_00000122689980206527354520000015621776752470791099_);" d="M243.88,84.34
		c1.21,1.05,2.18,2.38,3.48,3.32c4.68,3.41,9.36,6.59,14.99,8.19c4.93,1.4,10.32,1.87,15.39,1.01c1.65-0.28,3.53-0.8,4.58-2.21
		c1.19-1.6,0.86-3.8,0.51-5.63c-0.42-2.2-1.49-4.26-2.33-6.32c-1.09-2.68-2.15-5.46-2.47-8.36c-0.5-4.62,2.39-8.26,6.46-10.45
		c-2.16-2.4-10.13-10.11-10.13-10.11S245.57,82.87,243.88,84.34z"/>
	
		<linearGradient id="SVGID_00000116937333764877340480000001098635048034339234_" gradientUnits="userSpaceOnUse" x1="333.8922" y1="180.4901" x2="426.0178" y2="105.1953">
		<stop  offset="5.327789e-09" style="stop-color:#0F525A"/>
		<stop  offset="1" style="stop-color:#00292F"/>
	</linearGradient>
	<path style="fill:url(#SVGID_00000116937333764877340480000001098635048034339234_);" d="M386.69,112.62v36.02
		c-1.05,1.1-33.7,35.31-60.05,62.49l-4.74-1.96c0,0,35.57-39.62,48.2-59.24C382.74,130.32,386.69,112.62,386.69,112.62z"/>
	
		<linearGradient id="SVGID_00000135649663422617705670000001787573136160365481_" gradientUnits="userSpaceOnUse" x1="265.7452" y1="217.2973" x2="283.6979" y2="298.3205">
		<stop  offset="5.327789e-09" style="stop-color:#0F525A"/>
		<stop  offset="1" style="stop-color:#00292F"/>
	</linearGradient>
	<path style="fill:url(#SVGID_00000135649663422617705670000001787573136160365481_);" d="M301.8,183.75c0,0-25.87,24.72-41.97,60.5
		s-18.61,58.64-18.61,58.64V245.4l0.11-0.22c-0.01,7.17-0.02,11.83-0.02,11.83s3.8-18.16,22.96-41.46
		c8.34-10.69,17.81-20.44,27.4-30.01c1.69-1.67,3.69-3.66,5.96-5.91L301.8,183.75z"/>
	
		<linearGradient id="SVGID_00000181052703614775124790000015080481043335985810_" gradientUnits="userSpaceOnUse" x1="243.5005" y1="167.8053" x2="156.5015" y2="108.9689">
		<stop  offset="5.327789e-09" style="stop-color:#0F525A"/>
		<stop  offset="1" style="stop-color:#00292F"/>
	</linearGradient>
	<path style="fill:url(#SVGID_00000181052703614775124790000015080481043335985810_);" d="M241.06,182.63L241.06,182.63
		l-10.29,13.64c-0.15-0.44-0.3-0.88-0.47-1.31c-0.36-0.99-0.73-1.96-1.13-2.89c-0.28-0.67-0.57-1.33-0.87-1.96
		c-0.26-0.55-0.51-1.09-0.78-1.61c-0.22-0.43-0.44-0.86-0.65-1.27c-0.14-0.26-0.28-0.51-0.42-0.76c-0.51-0.94-1.04-1.83-1.58-2.69
		c-0.13-0.2-0.26-0.4-0.39-0.61c-0.17-0.26-0.34-0.52-0.51-0.78c-2.58-3.85-5.35-6.91-7.99-9.31c-0.19-0.18-0.38-0.35-0.57-0.51
		c-4.44-3.92-8.46-5.99-10.5-6.89c-0.08-0.04-0.16-0.07-0.23-0.1c-0.04-0.02-0.08-0.03-0.12-0.05c-0.07-0.03-0.15-0.06-0.22-0.09
		c-0.15-0.06-0.28-0.11-0.39-0.16c-0.05-0.02-0.09-0.04-0.13-0.05c-0.04-0.01-0.07-0.03-0.11-0.04c0,0,0.01-32.37-7.32-64.1
		c0,0,1.09,0.34,2.69,0.97c0.02,0.01,0.05,0.01,0.07,0.03c2.2,0.94,4.67,2.06,6.51,3.16c0.27,0.16,0.53,0.32,0.77,0.48
		c1.03,0.7,2.07,1.4,3.12,2.08c1.96,1.44,3.88,2.93,5.7,4.55c3.15,2.75,6.05,5.8,8.58,9.14c1.72,2.1,3.23,4.38,4.64,6.7
		c1.76,3.05,3.45,6.17,4.85,9.41c1.44,3.34,2.53,6.8,3.53,10.3c1.79,7.27,3.11,14.66,3.76,22.13c0.01,0.07,0.02,0.16,0.03,0.25
		c0.03,0.27,0.05,0.61,0.08,1.01c0.01,0.13,0.01,0.28,0.03,0.42c0.01,0.2,0.02,0.4,0.03,0.61c0.01,0.18,0.02,0.38,0.03,0.57
		c0.03,0.83,0.07,1.79,0.1,2.87c0.02,0.71,0.03,1.46,0.06,2.27c-0.01,0.04-0.01,0.08,0,0.13c0,0.22,0.01,0.46,0.01,0.69
		c0.01,0.65,0.03,1.34,0.04,2.06c0.01,0.36,0.01,0.74,0.02,1.12C241.06,182.23,241.06,182.43,241.06,182.63z"/>
	
		<linearGradient id="SVGID_00000080904724813143384350000005825615482070020785_" gradientUnits="userSpaceOnUse" x1="-2166.6233" y1="2158.092" x2="-2142.7339" y2="2189.7104" gradientTransform="matrix(0.89 -0.4559 0.4559 0.89 1030.068 -2608.4192)">
		<stop  offset="5.327789e-09" style="stop-color:#0F525A"/>
		<stop  offset="1" style="stop-color:#00292F"/>
	</linearGradient>
	<path style="fill:url(#SVGID_00000080904724813143384350000005825615482070020785_);" d="M106.27,237.86
		c-0.2,1.26-0.44,2.51-0.72,3.75c-1.48,8.51-3.62,16.9-6.42,25.07c-3.65,10.05-8.18,19.77-11.13,30.06
		c-3.97,13.01-5.41,24.15-4.47,37.79c0.73,21.55,5.01,35.48,10.33,41.9c0,0-28.31-32.95-22.07-59.01
		C79.51,285.21,97.29,257.61,106.27,237.86z"/>
	<g>
		<defs>
			<path id="SVGID_00000069380949800806916940000007795806131664645532_" d="M179.68,69.03c-9.84-21.08-29.02-37.79-51.67-43.6
				c-20.56-5.62-43.29-1.47-61,10.25C49.55,47.03,37.18,65.8,33.57,86.31c-0.96,3.45-0.4,7.07-1.02,10.57
				c0.63-2.35,0.71-4.79,1.04-7.21c2.81-15.99,11.12-30.97,23.2-41.83c14.64-13.4,34.92-20.48,54.73-18.78
				c22.49,0.86,44.05,13.22,56.47,31.94c4.56,6.89,8.32,14.51,9.7,22.71c0.15,0.96,0.27,1.91,0.39,2.86
				c0.04,0.36,0.09,0.72,0.13,1.08c1.88,16.79-0.76,32.59-9.74,47.4c-19.36,31.91-52.34,50.76-77.53,77.26
				c-16.71,17.58-29.34,39.07-32.74,63.31c-3.37,24.01,1.33,49.08,13.04,70.3c1.58,2.85,3.28,5.64,5.12,8.33
				c6.6,9.65,17.2,21.78,17.53,22.16c-5.12-5.85-7.06-17.51-8.45-24.87c-1.75-9.27-2.28-18.66-1.62-28.07
				c1.59-22.5,9.85-44.12,22.9-62.45c3.85-5.4,8.22-10.61,12.71-15.5c0.01-0.01,0.01-0.01,0.02-0.02
				c10.71-11.65,23.15-22.07,34.09-33.68c11.12-11.81,20.84-25.29,27.92-39.91c3.73-7.67,6.45-15.93,7.83-25.35
				C192.65,123.49,189.92,90.38,179.68,69.03z"/>
		</defs>
		<clipPath id="SVGID_00000038373016415466956400000000271778785311867542_">
			<use xlink:href="#SVGID_00000069380949800806916940000007795806131664645532_"  style="overflow:visible;"/>
		</clipPath>
	</g>
	
		<linearGradient id="SVGID_00000101076345286281677930000005218306517364350336_" gradientUnits="userSpaceOnUse" x1="20.0574" y1="158.917" x2="83.4735" y2="229.3403">
		<stop  offset="0.1461" style="stop-color:#4DBA7A"/>
		<stop  offset="1" style="stop-color:#28754E"/>
	</linearGradient>
	<path style="fill:url(#SVGID_00000101076345286281677930000005218306517364350336_);" d="M34.56,198.35
		c1.04-1.2,2.36-2.17,3.3-3.45c3.38-4.64,6.54-9.29,8.13-14.87c1.39-4.89,1.85-10.24,1.01-15.27c-0.27-1.63-0.8-3.51-2.19-4.54
		c-1.59-1.18-3.77-0.85-5.58-0.51c-2.19,0.42-4.23,1.48-6.27,2.31c-2.66,1.09-5.42,2.13-8.3,2.45c-4.58,0.5-8.2-2.37-10.37-6.41
		c-2.38,2.15-10.03,9.58-10.03,9.58S33.1,196.67,34.56,198.35z"/>
</g>
</svg>
